<svg width="16" height="9" viewBox="0 0 16 9" fill="none" xmlns="http://www.w3.org/2000/svg">
<path d="M15.1459 0.805919C14.9344 0.610039 14.6476 0.5 14.3486 0.5C14.0496 0.5 13.7628 0.610039 13.5513 0.805919L7.96927 5.97795L2.38719 0.805919C2.1745 0.615591 1.88964 0.510275 1.59397 0.512656C1.29829 0.515037 1.01545 0.624922 0.806367 0.818647C0.597284 1.01237 0.478687 1.27443 0.476118 1.54839C0.473548 1.82235 0.587214 2.08628 0.792632 2.28334L7.17199 8.19408C7.38346 8.38996 7.67024 8.5 7.96927 8.5C8.26829 8.5 8.55507 8.38996 8.76654 8.19408L15.1459 2.28334C15.3573 2.0874 15.4761 1.82169 15.4761 1.54463C15.4761 1.26757 15.3573 1.00186 15.1459 0.805919Z" fill="#66171D"/>
</svg>
