<svg width="174" height="38" viewBox="0 0 174 38" fill="none" xmlns="http://www.w3.org/2000/svg">
<path d="M19.4659 23.2282L4.80384 15.6649C1.81841 14.1249 0 11.3978 0 8.46049C0 3.78789 4.5212 0 10.0984 0H163.969C169.509 0 174 3.76258 174 8.40396C174 11.3693 172.135 14.1151 169.092 15.6294L153.631 23.3231C147.358 26.4451 139.509 26.2991 133.407 22.947L132.244 22.3082C123.18 17.329 110.993 19.6604 105.406 27.4421L103.393 30.2463C95.9238 40.6517 77.8848 40.5677 70.5536 30.0934L68.6455 27.3671C63.208 19.5983 51.1919 17.1184 42.0695 21.8822L39.5806 23.1819C33.4295 26.3941 25.638 26.4121 19.4659 23.2282Z" fill="#FFD6A0"/>
</svg>
