<svg width="392" height="364" viewBox="0 0 392 364" fill="none" xmlns="http://www.w3.org/2000/svg">
<circle cx="372" cy="52" r="20" fill="#66171D"/>
<path d="M366 42L363 46V60C363 60.5304 363.211 61.0391 363.586 61.4142C363.961 61.7893 364.47 62 365 62H379C379.53 62 380.039 61.7893 380.414 61.4142C380.789 61.0391 381 60.5304 381 60V46L378 42H366Z" stroke="#FEF3DF" stroke-width="2" stroke-linecap="round" stroke-linejoin="round"/>
<path d="M363 46H381" stroke="#FEF3DF" stroke-width="2" stroke-linecap="round" stroke-linejoin="round"/>
<path d="M376 50C376 51.0609 375.579 52.0783 374.828 52.8284C374.078 53.5786 373.061 54 372 54C370.939 54 369.922 53.5786 369.172 52.8284C368.421 52.0783 368 51.0609 368 50" stroke="#FEF3DF" stroke-width="2" stroke-linecap="round" stroke-linejoin="round"/>
</svg>
