<svg width="194" height="207" viewBox="0 0 194 207" fill="none" xmlns="http://www.w3.org/2000/svg">
<path d="M74 162L57.5 197L47.5 205.5L33.5 203C30.8333 197.333 25.5 185.7 25.5 184.5C25.5 183.3 29.1667 174.667 31 170.5L37 155.5C33.5 152.5 26.3 146.1 25.5 144.5C24.5 142.5 15 132 15 130C15 128.4 7 114.333 3 107.5L0.5 58.5L15 40.5C20.3333 37.6667 31.5 31.5 33.5 29.5C36 27 60.5 21.5 64.5 20C67.7 18.8 80.1667 10.5 86 6.5L118 1H149L176 16L180.5 46.5L193 78.5L164.5 85.5L158.5 89L134.5 100L115.5 110.5L102.5 116.5L90 136.5L74 162Z" fill="#FAF3E9" stroke="#FAF3E9"/>
</svg>
