<svg width="104" height="14" viewBox="0 0 104 14" fill="none" xmlns="http://www.w3.org/2000/svg">
<g clip-path="url(#clip0_317_6499)">
<path d="M10.5 8.75C9.88181 8.75 9.31364 8.9638 8.86512 9.32135L6.06277 7.56987C6.14575 7.19448 6.14575 6.80549 6.06277 6.4301L8.86512 4.67863C9.31364 5.0362 9.88181 5.25 10.5 5.25C11.9497 5.25 13.125 4.07474 13.125 2.625C13.125 1.17526 11.9497 0 10.5 0C9.05026 0 7.875 1.17526 7.875 2.625C7.875 2.82073 7.8966 3.01137 7.93723 3.19487L5.13488 4.94635C4.68636 4.5888 4.11819 4.375 3.5 4.375C2.05026 4.375 0.875 5.55026 0.875 7C0.875 8.44974 2.05026 9.625 3.5 9.625C4.11819 9.625 4.68636 9.4112 5.13488 9.05365L7.93723 10.8051C7.89581 10.9923 7.87494 11.1833 7.875 11.375C7.875 12.8247 9.05026 14 10.5 14C11.9497 14 13.125 12.8247 13.125 11.375C13.125 9.92526 11.9497 8.75 10.5 8.75Z" fill="#66171D"/>
</g>
<path d="M42.5609 4.1482C42.5698 4.27255 42.5698 4.39694 42.5698 4.5213C42.5698 8.31443 39.6827 12.685 34.4061 12.685C32.7804 12.685 31.2703 12.2142 30 11.3969C30.231 11.4236 30.453 11.4325 30.6929 11.4325C32.0342 11.4325 33.269 10.9794 34.2551 10.2066C32.9936 10.1799 31.9365 9.35379 31.5723 8.21673C31.75 8.24336 31.9277 8.26113 32.1142 8.26113C32.3718 8.26113 32.6295 8.22559 32.8693 8.16343C31.5546 7.89691 30.5685 6.74211 30.5685 5.34744V5.31192C30.9505 5.52512 31.3947 5.65836 31.8654 5.67611C31.0926 5.16087 30.5863 4.28144 30.5863 3.28651C30.5863 2.75353 30.7284 2.26495 30.9771 1.83855C32.3896 3.57966 34.5127 4.7167 36.8934 4.84109C36.849 4.62789 36.8223 4.40583 36.8223 4.18374C36.8223 2.60251 38.1015 1.31445 39.6916 1.31445C40.5177 1.31445 41.2639 1.6609 41.788 2.22054C42.4365 2.09618 43.0583 1.85632 43.6091 1.52765C43.3959 2.19391 42.9428 2.75355 42.3477 3.10886C42.9251 3.04671 43.4847 2.88677 43.9999 2.66471C43.6091 3.23322 43.1205 3.73954 42.5609 4.1482Z" fill="#66171D"/>
<path d="M70.2578 7.875L70.6466 5.34133H68.2155V3.69715C68.2155 3.00398 68.5551 2.32832 69.6439 2.32832H70.7492V0.171172C70.7492 0.171172 69.7462 0 68.7873 0C66.7852 0 65.4765 1.21352 65.4765 3.41031V5.34133H63.251V7.875H65.4765V14H68.2155V7.875H70.2578Z" fill="#66171D"/>
<g clip-path="url(#clip1_317_6499)">
<path d="M97.0028 3.85537C95.2638 3.85537 93.861 5.25811 93.861 6.99717C93.861 8.73623 95.2638 10.139 97.0028 10.139C98.7419 10.139 100.145 8.73623 100.145 6.99717C100.145 5.25811 98.7419 3.85537 97.0028 3.85537ZM97.0028 9.03975C95.879 9.03975 94.9603 8.12373 94.9603 6.99717C94.9603 5.87061 95.8763 4.95459 97.0028 4.95459C98.1294 4.95459 99.0454 5.87061 99.0454 6.99717C99.0454 8.12373 98.1267 9.03975 97.0028 9.03975ZM101.006 3.72686C101.006 4.13428 100.678 4.45967 100.273 4.45967C99.8657 4.45967 99.5403 4.13154 99.5403 3.72686C99.5403 3.32217 99.8685 2.99404 100.273 2.99404C100.678 2.99404 101.006 3.32217 101.006 3.72686ZM103.087 4.47061C103.04 3.48896 102.816 2.61943 102.097 1.90303C101.381 1.18662 100.511 0.962402 99.5294 0.913184C98.5177 0.855762 95.4853 0.855762 94.4735 0.913184C93.4946 0.959668 92.6251 1.18389 91.906 1.90029C91.1868 2.6167 90.9653 3.48623 90.9161 4.46787C90.8587 5.47959 90.8587 8.51201 90.9161 9.52373C90.9626 10.5054 91.1868 11.3749 91.906 12.0913C92.6251 12.8077 93.4919 13.0319 94.4735 13.0812C95.4853 13.1386 98.5177 13.1386 99.5294 13.0812C100.511 13.0347 101.381 12.8104 102.097 12.0913C102.813 11.3749 103.038 10.5054 103.087 9.52373C103.144 8.51201 103.144 5.48232 103.087 4.47061ZM101.78 10.6093C101.567 11.1452 101.154 11.5581 100.615 11.7741C99.8083 12.094 97.8942 12.0202 97.0028 12.0202C96.1114 12.0202 94.1946 12.0913 93.3907 11.7741C92.8548 11.5608 92.4419 11.1479 92.2259 10.6093C91.906 9.80264 91.9798 7.88857 91.9798 6.99717C91.9798 6.10576 91.9087 4.18896 92.2259 3.38506C92.4392 2.84912 92.8521 2.43623 93.3907 2.22021C94.1974 1.90029 96.1114 1.97412 97.0028 1.97412C97.8942 1.97412 99.811 1.90303 100.615 2.22021C101.151 2.4335 101.564 2.84639 101.78 3.38506C102.1 4.1917 102.026 6.10576 102.026 6.99717C102.026 7.88857 102.1 9.80537 101.78 10.6093Z" fill="#66171D"/>
</g>
<defs>
<clipPath id="clip0_317_6499">
<rect width="14" height="14" fill="white"/>
</clipPath>
<clipPath id="clip1_317_6499">
<rect width="14" height="14" fill="white" transform="translate(90)"/>
</clipPath>
</defs>
</svg>
