<svg width="14" height="13" viewBox="0 0 14 13" fill="none" xmlns="http://www.w3.org/2000/svg">
<mask id="path-1-inside-1_317_6829" fill="white">
<path d="M1.81141 0.261679C1.61311 0.089455 1.35083 -0.00430478 1.07982 0.000151902C0.808812 0.00460858 0.55024 0.106934 0.358579 0.285571C0.166918 0.464208 0.0571322 0.705208 0.0523506 0.9578C0.047569 1.21039 0.148165 1.45485 0.332945 1.63968L5.52153 6.47568L0.332945 11.3117C0.230168 11.4009 0.147734 11.5086 0.090559 11.6282C0.0333841 11.7478 0.00264103 11.8769 0.000162802 12.0078C-0.00231542 12.1387 0.0235221 12.2688 0.0761346 12.3902C0.128747 12.5116 0.207057 12.6218 0.306391 12.7144C0.405726 12.807 0.52405 12.88 0.654306 12.929C0.784562 12.9781 0.924081 13.0022 1.06454 12.9998C1.205 12.9975 1.34352 12.9689 1.47184 12.9156C1.60016 12.8623 1.71565 12.7855 1.81141 12.6897L7 7.85368L12.1886 12.6897C12.2844 12.7855 12.3998 12.8623 12.5282 12.9156C12.6565 12.9689 12.795 12.9975 12.9355 12.9998C13.0759 13.0022 13.2154 12.9781 13.3457 12.929C13.4759 12.88 13.5943 12.807 13.6936 12.7144C13.7929 12.6218 13.8713 12.5116 13.9239 12.3902C13.9765 12.2688 14.0023 12.1387 13.9998 12.0078C13.9974 11.8769 13.9666 11.7478 13.9094 11.6282C13.8523 11.5086 13.7698 11.4009 13.6671 11.3117L8.47847 6.47568L13.6671 1.63968C13.8518 1.45485 13.9524 1.21039 13.9476 0.9578C13.9429 0.705208 13.8331 0.464208 13.6414 0.285571C13.4498 0.106934 13.1912 0.00460858 12.9202 0.000151902C12.6492 -0.00430478 12.3869 0.089455 12.1886 0.261679L7 5.09768L1.81141 0.261679Z"/>
</mask>
<path d="M1.81141 0.261679C1.61311 0.089455 1.35083 -0.00430478 1.07982 0.000151902C0.808812 0.00460858 0.55024 0.106934 0.358579 0.285571C0.166918 0.464208 0.0571322 0.705208 0.0523506 0.9578C0.047569 1.21039 0.148165 1.45485 0.332945 1.63968L5.52153 6.47568L0.332945 11.3117C0.230168 11.4009 0.147734 11.5086 0.090559 11.6282C0.0333841 11.7478 0.00264103 11.8769 0.000162802 12.0078C-0.00231542 12.1387 0.0235221 12.2688 0.0761346 12.3902C0.128747 12.5116 0.207057 12.6218 0.306391 12.7144C0.405726 12.807 0.52405 12.88 0.654306 12.929C0.784562 12.9781 0.924081 13.0022 1.06454 12.9998C1.205 12.9975 1.34352 12.9689 1.47184 12.9156C1.60016 12.8623 1.71565 12.7855 1.81141 12.6897L7 7.85368L12.1886 12.6897C12.2844 12.7855 12.3998 12.8623 12.5282 12.9156C12.6565 12.9689 12.795 12.9975 12.9355 12.9998C13.0759 13.0022 13.2154 12.9781 13.3457 12.929C13.4759 12.88 13.5943 12.807 13.6936 12.7144C13.7929 12.6218 13.8713 12.5116 13.9239 12.3902C13.9765 12.2688 14.0023 12.1387 13.9998 12.0078C13.9974 11.8769 13.9666 11.7478 13.9094 11.6282C13.8523 11.5086 13.7698 11.4009 13.6671 11.3117L8.47847 6.47568L13.6671 1.63968C13.8518 1.45485 13.9524 1.21039 13.9476 0.9578C13.9429 0.705208 13.8331 0.464208 13.6414 0.285571C13.4498 0.106934 13.1912 0.00460858 12.9202 0.000151902C12.6492 -0.00430478 12.3869 0.089455 12.1886 0.261679L7 5.09768L1.81141 0.261679Z" fill="#66171D"/>
<path d="M1.81141 0.261679L3.85686 -1.9329L3.81833 -1.96881L3.77856 -2.00334L1.81141 0.261679ZM0.332945 1.63968L-1.78864 3.76073L-1.75122 3.79816L-1.7125 3.83425L0.332945 1.63968ZM5.52153 6.47568L7.56698 8.67025L9.92155 6.47568L7.56698 4.2811L5.52153 6.47568ZM0.332945 11.3117L2.30009 13.5767L2.33986 13.5422L2.37839 13.5063L0.332945 11.3117ZM1.81141 12.6897L-0.23403 10.4951L-0.272751 10.5312L-0.310175 10.5686L1.81141 12.6897ZM7 7.85368L9.04544 5.6591L7 3.75266L4.95456 5.6591L7 7.85368ZM12.1886 12.6897L14.3102 10.5686L14.2728 10.5312L14.234 10.4951L12.1886 12.6897ZM13.6671 11.3117L11.6216 13.5063L11.6601 13.5422L11.6999 13.5767L13.6671 11.3117ZM8.47847 6.47568L6.43302 4.2811L4.07845 6.47568L6.43302 8.67025L8.47847 6.47568ZM13.6671 1.63968L15.7125 3.83425L15.7512 3.79816L15.7886 3.76073L13.6671 1.63968ZM12.1886 0.261679L10.2214 -2.00334L10.1817 -1.96881L10.1431 -1.9329L12.1886 0.261679ZM7 5.09768L4.95456 7.29225L7 9.1987L9.04544 7.29225L7 5.09768ZM1.81141 0.261679L3.77856 -2.00334C3.00234 -2.67748 2.01523 -3.01564 1.03049 -2.99944L1.07982 0.000151902L1.12915 2.99975C0.68642 3.00703 0.22388 2.85639 -0.155734 2.5267L1.81141 0.261679ZM1.07982 0.000151902L1.03049 -2.99944C0.0456128 -2.98325 -0.932046 -2.61253 -1.68687 -1.909L0.358579 0.285571L2.40402 2.48015C2.03253 2.8264 1.57201 2.99246 1.12915 2.99975L1.07982 0.000151902ZM0.358579 0.285571L-1.68687 -1.909C-2.44819 -1.19942 -2.92632 -0.197148 -2.94711 0.901019L0.0523506 0.9578L3.05181 1.01458C3.04059 1.60757 2.78202 2.12783 2.40402 2.48015L0.358579 0.285571ZM0.0523506 0.9578L-2.94711 0.901019C-2.96791 1.99975 -2.52745 3.02174 -1.78864 3.76073L0.332945 1.63968L2.45453 -0.481372C2.82378 -0.112036 3.06305 0.421036 3.05181 1.01458L0.0523506 0.9578ZM0.332945 1.63968L-1.7125 3.83425L3.47609 8.67025L5.52153 6.47568L7.56698 4.2811L2.37839 -0.554895L0.332945 1.63968ZM5.52153 6.47568L3.47609 4.2811L-1.7125 9.1171L0.332945 11.3117L2.37839 13.5063L7.56698 8.67025L5.52153 6.47568ZM0.332945 11.3117L-1.6342 9.04666C-2.03886 9.39809 -2.37672 9.83362 -2.61606 10.3343L0.090559 11.6282L2.79718 12.9221C2.67219 13.1835 2.49919 13.4038 2.30009 13.5767L0.332945 11.3117ZM0.090559 11.6282L-2.61606 10.3343C-2.85575 10.8356 -2.98861 11.3861 -2.9993 11.951L0.000162802 12.0078L2.99963 12.0646C2.99389 12.3677 2.92251 12.6599 2.79718 12.9221L0.090559 11.6282ZM0.000162802 12.0078L-2.9993 11.951C-3.00999 12.516 -2.89804 13.0718 -2.6765 13.5831L0.0761346 12.3902L2.82877 11.1973C2.94509 11.4657 3.00536 11.7614 2.99963 12.0646L0.000162802 12.0078ZM0.0761346 12.3902L-2.6765 13.5831C-2.45526 14.0936 -2.13242 14.5424 -1.73905 14.909L0.306391 12.7144L2.35184 10.5199C2.54653 10.7013 2.71275 10.9296 2.82877 11.1973L0.0761346 12.3902ZM0.306391 12.7144L-1.73905 14.909C-1.34617 15.2752 -0.889916 15.5532 -0.402678 15.7367L0.654306 12.929L1.71129 10.1214C1.93802 10.2068 2.15762 10.3388 2.35184 10.5199L0.306391 12.7144ZM0.654306 12.929L-0.402678 15.7367C0.0843356 15.92 0.599444 16.0079 1.11387 15.9994L1.06454 12.9998L1.01521 10.0003C1.24872 9.99641 1.48479 10.0361 1.71129 10.1214L0.654306 12.929ZM1.06454 12.9998L1.11387 15.9994C1.6283 15.991 2.14082 15.8862 2.62243 15.6862L1.47184 12.9156L0.321243 10.145C0.546215 10.0516 0.781698 10.0041 1.01521 10.0003L1.06454 12.9998ZM1.47184 12.9156L2.62243 15.6862C3.10429 15.4861 3.55203 15.1918 3.933 14.8107L1.81141 12.6897L-0.310175 10.5686C-0.120738 10.3791 0.0960271 10.2385 0.321243 10.145L1.47184 12.9156ZM1.81141 12.6897L3.85686 14.8843L9.04544 10.0483L7 7.85368L4.95456 5.6591L-0.23403 10.4951L1.81141 12.6897ZM7 7.85368L4.95456 10.0483L10.1431 14.8843L12.1886 12.6897L14.234 10.4951L9.04544 5.6591L7 7.85368ZM12.1886 12.6897L10.067 14.8107C10.448 15.1918 10.8957 15.4861 11.3776 15.6862L12.5282 12.9156L13.6788 10.145C13.904 10.2385 14.1207 10.3791 14.3102 10.5686L12.1886 12.6897ZM12.5282 12.9156L11.3776 15.6862C11.8592 15.8862 12.3717 15.991 12.8861 15.9994L12.9355 12.9998L12.9848 10.0003C13.2183 10.0041 13.4538 10.0516 13.6788 10.145L12.5282 12.9156ZM12.9355 12.9998L12.8861 15.9994C13.4006 16.0079 13.9157 15.92 14.4027 15.7367L13.3457 12.929L12.2887 10.1214C12.5152 10.0361 12.7513 9.99641 12.9848 10.0003L12.9355 12.9998ZM13.3457 12.929L14.4027 15.7367C14.8899 15.5532 15.3462 15.2752 15.7391 14.909L13.6936 12.7144L11.6482 10.5199C11.8424 10.3388 12.062 10.2068 12.2887 10.1214L13.3457 12.929ZM13.6936 12.7144L15.7391 14.909C16.1324 14.5424 16.4553 14.0936 16.6765 13.5831L13.9239 12.3902L11.1712 11.1973C11.2872 10.9295 11.4535 10.7013 11.6482 10.5199L13.6936 12.7144ZM13.9239 12.3902L16.6765 13.5831C16.898 13.0718 17.01 12.516 16.9993 11.951L13.9998 12.0078L11.0004 12.0646C10.9946 11.7614 11.0549 11.4657 11.1712 11.1973L13.9239 12.3902ZM13.9998 12.0078L16.9993 11.951C16.9886 11.3861 16.8557 10.8356 16.6161 10.3343L13.9094 11.6282L11.2028 12.9221C11.0775 12.6599 11.0061 12.3677 11.0004 12.0646L13.9998 12.0078ZM13.9094 11.6282L16.6161 10.3343C16.3767 9.83361 16.0388 9.39809 15.6342 9.04666L13.6671 11.3117L11.6999 13.5767C11.5008 13.4038 11.3278 13.1835 11.2028 12.9221L13.9094 11.6282ZM13.6671 11.3117L15.7125 9.1171L10.5239 4.2811L8.47847 6.47568L6.43302 8.67025L11.6216 13.5063L13.6671 11.3117ZM8.47847 6.47568L10.5239 8.67025L15.7125 3.83425L13.6671 1.63968L11.6216 -0.554895L6.43302 4.2811L8.47847 6.47568ZM13.6671 1.63968L15.7886 3.76073C16.5274 3.02175 16.9679 1.99976 16.9471 0.901019L13.9476 0.9578L10.9482 1.01458C10.937 0.421025 11.1762 -0.112043 11.5455 -0.481372L13.6671 1.63968ZM13.9476 0.9578L16.9471 0.901019C16.9263 -0.197159 16.4482 -1.19942 15.6869 -1.909L13.6414 0.285571L11.596 2.48015C11.218 2.12784 10.9594 1.60758 10.9482 1.01458L13.9476 0.9578ZM13.6414 0.285571L15.6869 -1.909C14.932 -2.61253 13.9544 -2.98325 12.9695 -2.99944L12.9202 0.000151902L12.8709 2.99975C12.428 2.99246 11.9675 2.8264 11.596 2.48015L13.6414 0.285571ZM12.9202 0.000151902L12.9695 -2.99944C11.9848 -3.01564 10.9977 -2.67748 10.2214 -2.00334L12.1886 0.261679L14.1557 2.5267C13.7761 2.85639 13.3136 3.00703 12.8709 2.99975L12.9202 0.000151902ZM12.1886 0.261679L10.1431 -1.9329L4.95456 2.9031L7 5.09768L9.04544 7.29225L14.234 2.45625L12.1886 0.261679ZM7 5.09768L9.04544 2.9031L3.85686 -1.9329L1.81141 0.261679L-0.23403 2.45625L4.95456 7.29225L7 5.09768Z" fill="#66171D" mask="url(#path-1-inside-1_317_6829)"/>
</svg>
