<svg width="12" height="15" viewBox="0 0 12 15" fill="none" xmlns="http://www.w3.org/2000/svg">
<path fill-rule="evenodd" clip-rule="evenodd" d="M0.0213745 5.48681C0.14194 3.99152 0.807502 2.59728 1.88594 1.58086C2.96439 0.564434 4.37686 0.000144743 5.84298 0H6.15695C7.62308 0.000144743 9.03555 0.564434 10.114 1.58086C11.1924 2.59728 11.858 3.99152 11.9786 5.48681C12.1132 7.1562 11.6096 8.81393 10.5737 10.1108L7.09016 14.4708C6.95812 14.6362 6.79181 14.7695 6.60327 14.861C6.41472 14.9525 6.20865 15 5.99997 15C5.79129 15 5.58522 14.9525 5.39667 14.861C5.20812 14.7695 5.04181 14.6362 4.90978 14.4708L1.42699 10.1108C0.390807 8.81404 -0.113114 7.1563 0.0213745 5.48681ZM5.99997 2.78915C5.08437 2.78915 4.20627 3.16137 3.55885 3.82392C2.91142 4.48647 2.5477 5.38508 2.5477 6.32207C2.5477 7.25906 2.91142 8.15767 3.55885 8.82022C4.20627 9.48277 5.08437 9.85499 5.99997 9.85499C6.91556 9.85499 7.79366 9.48277 8.44108 8.82022C9.08851 8.15767 9.45223 7.25906 9.45223 6.32207C9.45223 5.38508 9.08851 4.48647 8.44108 3.82392C7.79366 3.16137 6.91556 2.78915 5.99997 2.78915Z" fill="#66171D"/>
</svg>
