<svg width="10" height="6" viewBox="0 0 10 6" fill="none" xmlns="http://www.w3.org/2000/svg">
<path fill-rule="evenodd" clip-rule="evenodd" d="M5.47124 5.47124C5.34622 5.59622 5.17668 5.66643 4.9999 5.66643C4.82313 5.66643 4.65359 5.59622 4.52857 5.47124L0.757237 1.6999C0.693563 1.63841 0.642775 1.56484 0.607836 1.48351C0.572896 1.40217 0.554505 1.31469 0.553736 1.22617C0.552967 1.13765 0.569835 1.04986 0.603355 0.967934C0.636876 0.886003 0.686378 0.811568 0.748973 0.748973C0.811568 0.686378 0.886003 0.636876 0.967934 0.603355C1.04986 0.569835 1.13765 0.552967 1.22617 0.553736C1.31469 0.554505 1.40217 0.572896 1.48351 0.607836C1.56484 0.642775 1.63841 0.693563 1.6999 0.757236L4.9999 4.05724L8.2999 0.757236C8.42564 0.635798 8.59404 0.568601 8.76884 0.57012C8.94363 0.571639 9.11084 0.641752 9.23445 0.765357C9.35805 0.888962 9.42817 1.05617 9.42969 1.23097C9.43121 1.40577 9.36401 1.57417 9.24257 1.6999L5.47124 5.47124Z" fill="#66171D"/>
</svg>
