<svg width="10" height="6" viewBox="0 0 10 6" fill="none" xmlns="http://www.w3.org/2000/svg">
<path fill-rule="evenodd" clip-rule="evenodd" d="M5.47124 4.97124C5.34622 5.09622 5.17668 5.16643 4.9999 5.16643C4.82313 5.16643 4.65359 5.09622 4.52857 4.97124L0.757237 1.1999C0.693563 1.13841 0.642775 1.06484 0.607836 0.983506C0.572896 0.90217 0.554505 0.81469 0.553736 0.726171C0.552967 0.637651 0.569835 0.549865 0.603355 0.467934C0.636876 0.386003 0.686378 0.311568 0.748973 0.248973C0.811568 0.186378 0.886003 0.136876 0.967934 0.103355C1.04986 0.0698346 1.13765 0.0529669 1.22617 0.0537361C1.31469 0.0545053 1.40217 0.0728962 1.48351 0.107836C1.56484 0.142775 1.63841 0.193563 1.6999 0.257236L4.9999 3.55724L8.2999 0.257236C8.42564 0.135798 8.59404 0.0686013 8.76884 0.0701202C8.94363 0.0716392 9.11084 0.141752 9.23445 0.265357C9.35805 0.388962 9.42817 0.556171 9.42969 0.730969C9.43121 0.905767 9.36401 1.07417 9.24257 1.1999L5.47124 4.97124Z" fill="black" fill-opacity="0.5"/>
</svg>
