<svg width="13" height="16" viewBox="0 0 13 16" fill="none" xmlns="http://www.w3.org/2000/svg">
<path d="M12.0613 15.049L11.8708 0.791629C11.8685 0.647287 11.8268 0.506325 11.7502 0.38392C11.6737 0.261514 11.5652 0.1623 11.4365 0.0969556C11.3078 0.0316107 11.1637 0.00261021 11.0197 0.0130765C10.8757 0.0235418 10.7373 0.0730777 10.6194 0.156352L0.417585 7.42261C-0.00539841 7.72376 0.00410354 8.43504 0.434991 8.72558L10.8272 15.7167C10.9471 15.7977 11.0869 15.8442 11.2313 15.8513C11.3758 15.8583 11.5194 15.8257 11.6466 15.7569C11.7738 15.688 11.8797 15.5857 11.9528 15.4609C12.026 15.3361 12.0635 15.1936 12.0613 15.049Z" fill="#66171D"/>
</svg>
