<svg width="16" height="9" viewBox="0 0 16 9" fill="none" xmlns="http://www.w3.org/2000/svg">
<path d="M15.146 0.805919C14.9345 0.610039 14.6478 0.5 14.3487 0.5C14.0497 0.5 13.7629 0.610039 13.5515 0.805919L7.96939 5.97795L2.38731 0.805919C2.17463 0.615591 1.88977 0.510275 1.59409 0.512656C1.29841 0.515037 1.01557 0.624922 0.806489 0.818647C0.597406 1.01237 0.478809 1.27443 0.47624 1.54839C0.47367 1.82235 0.587336 2.08628 0.792754 2.28334L7.17211 8.19408C7.38358 8.38996 7.67036 8.5 7.96939 8.5C8.26841 8.5 8.55519 8.38996 8.76667 8.19408L15.146 2.28334C15.3574 2.0874 15.4762 1.82169 15.4762 1.54463C15.4762 1.26757 15.3574 1.00186 15.146 0.805919Z" fill="#66171D"/>
</svg>
