<svg width="172" height="23" viewBox="0 0 172 23" fill="none" xmlns="http://www.w3.org/2000/svg">
<path d="M10.4388 19.9499L9.23047 18.8499C4.9388 14.9582 2.10547 12.3832 2.10547 9.24154C2.10547 6.66654 4.12214 4.6582 6.6888 4.6582C8.1388 4.6582 9.53047 5.3332 10.4388 6.39154C11.3471 5.3332 12.7388 4.6582 14.1888 4.6582C16.7555 4.6582 18.7721 6.66654 18.7721 9.24154C18.7721 12.3832 15.9388 14.9582 11.6471 18.8499L10.4388 19.9499Z" fill="#66171D"/>
<path d="M40.7506 4.2373C36.7402 4.2373 33.459 7.51126 33.459 11.5435C33.459 15.1894 36.1277 18.2154 39.6131 18.7623V13.6581H37.7611V11.5435H39.6131V9.93209C39.6131 8.10188 40.6996 7.09563 42.3694 7.09563C43.1642 7.09563 43.9954 7.23418 43.9954 7.23418V9.03522H43.0767C42.1725 9.03522 41.8881 9.59667 41.8881 10.1727V11.5435H43.9152L43.5871 13.6581H41.8881V18.7623C43.6064 18.4909 45.171 17.6142 46.2995 16.2905C47.4281 14.9667 48.0462 13.2831 48.0423 11.5435C48.0423 7.51126 44.7611 4.2373 40.7506 4.2373Z" fill="#66171D"/>
<path d="M77.8772 7.12532C77.3157 7.38053 76.7105 7.54824 76.0834 7.62845C76.7251 7.24199 77.2209 6.62949 77.4543 5.89303C76.8491 6.25762 76.1782 6.51282 75.4709 6.65866C74.8949 6.03158 74.0855 5.66699 73.1668 5.66699C71.4532 5.66699 70.0532 7.06699 70.0532 8.79511C70.0532 9.04303 70.0824 9.28366 70.1335 9.5097C67.5376 9.37845 65.2262 8.13157 63.6876 6.24303C63.4178 6.70241 63.2647 7.24199 63.2647 7.81074C63.2647 8.8972 63.8116 9.8597 64.6574 10.4066C64.1397 10.4066 63.6585 10.2607 63.2355 10.042V10.0639C63.2355 11.5805 64.3147 12.8493 65.7439 13.1337C65.285 13.2592 64.8033 13.2767 64.3366 13.1847C64.5346 13.8063 64.9225 14.3502 65.4457 14.74C65.9688 15.1297 66.601 15.3457 67.2533 15.3576C66.1476 16.2329 64.777 16.7061 63.3668 16.6993C63.1189 16.6993 62.871 16.6847 62.623 16.6555C64.0085 17.5451 65.6564 18.0628 67.421 18.0628C73.1668 18.0628 76.3241 13.2941 76.3241 9.1597C76.3241 9.02116 76.3241 8.8899 76.3168 8.75136C76.9293 8.31386 77.4543 7.7597 77.8772 7.12532Z" fill="#66171D"/>
<path d="M106.746 8.00187C106.663 7.69372 106.501 7.4127 106.275 7.18678C106.05 6.96086 105.769 6.79791 105.461 6.71416C104.319 6.40062 99.7511 6.39551 99.7511 6.39551C99.7511 6.39551 95.1836 6.39041 94.041 6.6901C93.7332 6.7777 93.4532 6.94295 93.2277 7.16999C93.0022 7.39702 92.8388 7.6782 92.7533 7.98655C92.4521 9.12843 92.4492 11.4968 92.4492 11.4968C92.4492 11.4968 92.4463 13.8768 92.7453 15.007C92.913 15.6319 93.4052 16.1255 94.0308 16.2939C95.1843 16.6075 99.7401 16.6126 99.7401 16.6126C99.7401 16.6126 104.308 16.6177 105.45 16.3187C105.758 16.2351 106.039 16.0726 106.265 15.8471C106.491 15.6216 106.654 15.3411 106.739 15.0332C107.041 13.8921 107.043 11.5245 107.043 11.5245C107.043 11.5245 107.057 9.14374 106.746 8.00187ZM98.2898 13.6908L98.2935 9.31582L102.09 11.507L98.2898 13.6908Z" fill="#66171D"/>
<path d="M126.188 4.20801H132.313C134.646 4.20801 136.542 6.10384 136.542 8.43717V14.5622C136.542 15.6838 136.097 16.7595 135.304 17.5526C134.51 18.3458 133.435 18.7913 132.313 18.7913H126.188C123.855 18.7913 121.959 16.8955 121.959 14.5622V8.43717C121.959 7.31553 122.405 6.23982 123.198 5.4467C123.991 4.65358 125.067 4.20801 126.188 4.20801ZM126.042 5.66634C125.346 5.66634 124.678 5.9429 124.186 6.43518C123.694 6.92747 123.417 7.59514 123.417 8.29134V14.708C123.417 16.159 124.591 17.333 126.042 17.333H132.459C133.155 17.333 133.823 17.0564 134.315 16.5641C134.807 16.0719 135.084 15.4042 135.084 14.708V8.29134C135.084 6.8403 133.91 5.66634 132.459 5.66634H126.042ZM133.079 6.76009C133.32 6.76009 133.552 6.85612 133.723 7.02705C133.894 7.19798 133.99 7.42981 133.99 7.67155C133.99 7.91328 133.894 8.14511 133.723 8.31604C133.552 8.48697 133.32 8.583 133.079 8.583C132.837 8.583 132.605 8.48697 132.434 8.31604C132.263 8.14511 132.167 7.91328 132.167 7.67155C132.167 7.42981 132.263 7.19798 132.434 7.02705C132.605 6.85612 132.837 6.76009 133.079 6.76009ZM129.251 7.85384C130.218 7.85384 131.145 8.23795 131.829 8.92168C132.512 9.6054 132.896 10.5327 132.896 11.4997C132.896 12.4666 132.512 13.3939 131.829 14.0777C131.145 14.7614 130.218 15.1455 129.251 15.1455C128.284 15.1455 127.356 14.7614 126.673 14.0777C125.989 13.3939 125.605 12.4666 125.605 11.4997C125.605 10.5327 125.989 9.6054 126.673 8.92168C127.356 8.23795 128.284 7.85384 129.251 7.85384ZM129.251 9.31217C128.67 9.31217 128.114 9.54264 127.704 9.95287C127.294 10.3631 127.063 10.9195 127.063 11.4997C127.063 12.0798 127.294 12.6362 127.704 13.0465C128.114 13.4567 128.67 13.6872 129.251 13.6872C129.831 13.6872 130.387 13.4567 130.797 13.0465C131.208 12.6362 131.438 12.0798 131.438 11.4997C131.438 10.9195 131.208 10.3631 130.797 9.95287C130.387 9.54264 129.831 9.31217 129.251 9.31217Z" fill="#66171D"/>
</svg>
