<svg width="12" height="12" viewBox="0 0 12 12" fill="none" xmlns="http://www.w3.org/2000/svg">
<path d="M0.5 6C0.5 4.54131 1.07946 3.14236 2.11091 2.11091C3.14236 1.07946 4.54131 0.5 6 0.5C7.45869 0.5 8.85764 1.07946 9.88909 2.11091C10.9205 3.14236 11.5 4.54131 11.5 6C11.5 7.45869 10.9205 8.85764 9.88909 9.88909C8.85764 10.9205 7.45869 11.5 6 11.5C4.54131 11.5 3.14236 10.9205 2.11091 9.88909C1.07946 8.85764 0.5 7.45869 0.5 6ZM6 2.5625C5.08832 2.5625 4.21398 2.92466 3.56932 3.56932C2.92466 4.21398 2.5625 5.08832 2.5625 6C2.5625 6.91168 2.92466 7.78602 3.56932 8.43068C4.21398 9.07534 5.08832 9.4375 6 9.4375C6.91168 9.4375 7.78602 9.07534 8.43068 8.43068C9.07534 7.78602 9.4375 6.91168 9.4375 6C9.4375 5.08832 9.07534 4.21398 8.43068 3.56932C7.78602 2.92466 6.91168 2.5625 6 2.5625Z" fill="#66171D"/>
</svg>
