<svg width="16" height="9" viewBox="0 0 16 9" fill="none" xmlns="http://www.w3.org/2000/svg">
<path d="M15.1464 0.805919C14.9349 0.610039 14.6481 0.5 14.3491 0.5C14.0501 0.5 13.7633 0.610039 13.5518 0.805919L7.96975 5.97795L2.38768 0.805919C2.17499 0.615591 1.89013 0.510275 1.59446 0.512656C1.29878 0.515037 1.01594 0.624922 0.806855 0.818647C0.597773 1.01237 0.479176 1.27443 0.476606 1.54839C0.474036 1.82235 0.587702 2.08628 0.79312 2.28334L7.17248 8.19408C7.38395 8.38996 7.67073 8.5 7.96975 8.5C8.26878 8.5 8.55556 8.38996 8.76703 8.19408L15.1464 2.28334C15.3578 2.0874 15.4766 1.82169 15.4766 1.54463C15.4766 1.26757 15.3578 1.00186 15.1464 0.805919Z" fill="#66171D"/>
</svg>
