<svg width="13" height="16" viewBox="0 0 13 16" fill="none" xmlns="http://www.w3.org/2000/svg">
<path d="M0.0822462 15.049L0.272708 0.791629C0.27509 0.647287 0.316792 0.506325 0.393327 0.38392C0.469861 0.261514 0.578329 0.1623 0.707056 0.0969556C0.835783 0.0316107 0.979896 0.00261021 1.12388 0.0130765C1.26786 0.0235418 1.40626 0.0730777 1.52419 0.156352L11.726 7.42261C12.149 7.72376 12.1395 8.43504 11.7086 8.72558L1.31632 15.7167C1.19645 15.7977 1.05669 15.8442 0.912237 15.8513C0.767779 15.8583 0.624145 15.8257 0.49694 15.7569C0.369734 15.688 0.263821 15.5857 0.19071 15.4609C0.117599 15.3361 0.0800873 15.1936 0.0822462 15.049Z" fill="#66171D"/>
</svg>
