<svg width="100" height="102" viewBox="0 0 100 102" fill="none" xmlns="http://www.w3.org/2000/svg">
<path d="M38.4182 79.7286L30.0182 96.8435L24.9273 101L17.8 99.7775C16.4424 97.0065 13.7273 91.3178 13.7273 90.731C13.7273 90.1443 15.5939 85.9226 16.5273 83.8851L19.5818 76.5501C17.8 75.0831 14.1345 71.9535 13.7273 71.1712C13.2182 70.1932 8.38182 65.0587 8.38182 64.0807C8.38182 63.2983 4.30909 56.4197 2.27273 53.0782L1 29.1174L8.38182 20.3154C11.097 18.9299 16.7818 15.9144 17.8 14.9364C19.0727 13.7139 31.5455 11.0244 33.5818 10.291C35.2109 9.70416 41.5576 5.64548 44.5273 3.68949L60.8182 1H76.6L90.3455 8.33496L92.6364 23.2494L99 38.8973L84.4909 42.3203L81.4364 44.0318L69.2182 49.4108L59.5455 54.5452L52.9273 57.4792L46.5636 67.2592L38.4182 79.7286Z" fill="#FAF3E9" stroke="#FAF3E9"/>
</svg>
